<?xml version="1.0" standalone="no"?>
<!DOCTYPE svg PUBLIC "-//W3C//DTD SVG 20010904//EN"
 "http://www.w3.org/TR/2001/REC-SVG-20010904/DTD/svg10.dtd">
<svg version="1.0" xmlns="http://www.w3.org/2000/svg"
 width="700.000000pt" height="700.000000pt" viewBox="0 0 700.000000 700.000000"
 preserveAspectRatio="xMidYMid meet">
<metadata>
Created by potrace 1.11, written by Peter Selinger 2001-2013
</metadata>
<g transform="translate(0.000000,700.000000) scale(0.100000,-0.100000)"
fill="#000000" stroke="none">
<path d="M3520 6979 c-290 -25 -512 -209 -589 -488 -37 -135 -19 -322 45 -451
58 -117 171 -233 285 -290 114 -58 183 -74 314 -74 175 1 329 68 456 198 83
86 129 167 170 306 22 72 17 241 -10 330 -75 250 -290 435 -540 466 -19 3 -37
6 -40 7 -3 2 -44 0 -91 -4z"/>
<path d="M1412 6420 c-237 -57 -429 -250 -488 -491 -4 -13 -8 -71 -10 -129 -5
-152 28 -266 112 -386 196 -280 572 -364 865 -193 111 64 201 160 257 274 125
251 74 554 -125 751 -83 82 -149 123 -260 160 -102 34 -244 40 -351 14z"/>
<path d="M5555 6423 c-231 -48 -428 -237 -492 -474 -38 -142 -15 -345 54 -469
84 -151 215 -263 368 -315 69 -23 79 -25 176 -32 65 -4 106 -1 165 13 44 10
82 18 85 18 3 1 41 19 85 41 104 52 223 169 275 271 59 113 73 173 73 309 1
106 -2 130 -28 208 -15 48 -31 87 -35 87 -3 0 -15 18 -25 40 -11 22 -44 67
-74 101 -159 175 -393 250 -627 202z"/>
<path d="M3340 5114 c-263 -41 -450 -108 -653 -232 -701 -429 -990 -1313 -676
-2071 151 -364 435 -673 785 -852 171 -88 386 -156 559 -176 90 -10 331 -10
415 0 237 29 506 127 700 254 136 89 218 161 370 322 44 47 127 166 183 262
117 205 186 425 213 677 11 111 6 320 -12 403 -2 13 -7 40 -10 59 -3 19 -16
77 -30 129 -161 600 -660 1076 -1261 1200 -54 11 -114 23 -133 27 -66 11 -374
10 -450 -2z"/>
<path d="M544 4095 c-257 -45 -463 -230 -527 -477 -20 -77 -22 -240 -3 -320
68 -294 337 -503 646 -501 92 0 167 17 257 58 91 42 132 72 211 154 133 138
198 349 168 541 -33 204 -168 391 -347 479 -142 69 -267 90 -405 66z"/>
<path d="M6265 4099 c-281 -34 -521 -270 -562 -554 -40 -277 108 -558 359
-679 128 -62 235 -80 380 -63 202 23 400 167 492 360 56 115 70 185 64 324 -7
167 -60 291 -176 415 -71 76 -142 120 -285 177 -51 20 -185 30 -272 20z"/>
<path d="M1435 1970 c-192 -41 -370 -177 -454 -346 -180 -364 0 -794 385 -920
116 -38 257 -40 377 -5 421 121 608 624 366 985 -96 144 -229 237 -404 283
-37 9 -230 12 -270 3z"/>
<path d="M5550 1965 c-220 -49 -411 -228 -480 -450 -27 -86 -33 -243 -13 -328
73 -316 352 -527 676 -512 240 12 455 159 560 386 26 55 28 64 45 145 27 129
5 282 -60 414 -81 166 -256 304 -437 346 -59 14 -228 13 -291 -1z"/>
<path d="M3440 1314 c-180 -36 -345 -152 -438 -307 -62 -102 -85 -188 -88
-318 -3 -130 13 -205 67 -313 199 -394 726 -478 1040 -166 85 85 136 169 170
280 31 101 31 275 1 366 -55 166 -154 293 -297 381 -119 74 -310 106 -455 77z"/>
</g>
</svg>
